<?xml version="1.0" encoding="UTF-8" standalone="no"?>
<!-- Created with Inkscape (http://www.inkscape.org/) -->

<svg
   width="5.5mm"
   height="69mm"
   viewBox="0 0 5.5 69"
   version="1.1"
   id="svg5"
   xml:space="preserve"
   sodipodi:docname="seta.svg"
   inkscape:version="1.3.2 (091e20e, 2023-11-25, custom)"
   xmlns:inkscape="http://www.inkscape.org/namespaces/inkscape"
   xmlns:sodipodi="http://sodipodi.sourceforge.net/DTD/sodipodi-0.dtd"
   xmlns="http://www.w3.org/2000/svg"
   xmlns:svg="http://www.w3.org/2000/svg"><sodipodi:namedview
     id="namedview1"
     pagecolor="#ffffff"
     bordercolor="#000000"
     borderopacity="0.25"
     inkscape:showpageshadow="2"
     inkscape:pageopacity="0.0"
     inkscape:pagecheckerboard="0"
     inkscape:deskcolor="#d1d1d1"
     inkscape:document-units="mm"
     inkscape:zoom="1.3522741"
     inkscape:cx="-23.663842"
     inkscape:cy="169.34437"
     inkscape:window-width="1920"
     inkscape:window-height="991"
     inkscape:window-x="-9"
     inkscape:window-y="-9"
     inkscape:window-maximized="1"
     inkscape:current-layer="svg5" /><defs
     id="defs2" /><g
     id="g1"><path
       id="path1072-8"
       style="fill:#192124;fill-opacity:1;stroke-width:5.91653"
       d="m 1.610592,23.78211 1.095787,1.200544 3.82e-4,0.498747 -1.326109,-1.444376 C 1.26815,23.841469 1.428282,23.667346 1.610619,23.78211 Z m 2.192256,-2.48e-4 -1.096345,1.200544 1.91e-4,0.498747 1.326093,-1.444376 C 4.145289,23.841221 3.985157,23.667099 3.80282,23.781862 Z" /><path
       id="path1072-8-1"
       style="fill:#ff722b;fill-opacity:1;stroke-width:5.91653"
       d="M 3.802938,3.897663 2.707151,2.697119 2.706769,2.198372 4.032878,3.642748 C 4.14538,3.838304 3.985248,4.012427 3.802911,3.897663 Z M 1.610682,3.897911 2.707027,2.697367 2.706836,2.19862 1.380743,3.642996 C 1.268241,3.838552 1.428373,4.012674 1.61071,3.897911 Z" /><rect
       style="fill:none;fill-opacity:0.416031;stroke:none;stroke-width:0.0997965;stroke-dasharray:none;stroke-opacity:1"
       id="rect234-8"
       width="4.3438959"
       height="67.919472"
       x="0.58345789"
       y="0.62484378"
       ry="1.8520833" /><path
       id="path1072-8-6"
       style="fill:#e7ecee;fill-opacity:1;stroke-width:5.91653"
       d="m 1.612288,65.455124 1.095787,1.200544 3.82e-4,0.498747 -1.326109,-1.444376 C 1.269846,65.514483 1.429978,65.34036 1.612315,65.455124 Z m 2.192256,-2.48e-4 -1.096345,1.200544 1.91e-4,0.498747 1.326093,-1.444376 C 4.146985,65.514235 3.986853,65.340113 3.804516,65.454876 Z" /><path
       id="path1072-8-1-9"
       style="fill:#ff722b;fill-opacity:1;stroke-width:5.91653"
       d="m 3.804634,45.570677 -1.095787,-1.200544 -3.82e-4,-0.498747 1.326109,1.444376 c 0.112502,0.195556 -0.04763,0.369679 -0.229967,0.254915 z m -2.192256,2.48e-4 1.096345,-1.200544 -1.91e-4,-0.498747 -1.326093,1.444376 c -0.112502,0.195556 0.04763,0.369678 0.229967,0.254915 z" /></g></svg>
