<?xml version="1.0" encoding="UTF-8" standalone="no"?>
<!-- Created with Inkscape (http://www.inkscape.org/) -->

<svg
   width="5.5mm"
   height="69mm"
   viewBox="0 0 5.5 69"
   version="1.1"
   id="svg5"
   xml:space="preserve"
   xmlns="http://www.w3.org/2000/svg"
   xmlns:svg="http://www.w3.org/2000/svg"><defs
     id="defs2" /><g
     id="layer1"><g
       id="g4077"
       transform="translate(-11.906251,-32.279167)"><path
         id="path1072-8"
         style="fill:#192124;fill-opacity:1;stroke-width:5.91653"
         d="m 13.516843,56.061277 1.095787,1.200544 3.82e-4,0.498747 -1.326109,-1.444376 c -0.112502,-0.195556 0.04763,-0.369679 0.229967,-0.254915 z m 2.192256,-2.48e-4 -1.096345,1.200544 1.91e-4,0.498747 1.326093,-1.444376 c 0.112502,-0.195556 -0.04763,-0.369678 -0.229967,-0.254915 z" /><path
         id="path1072-8-1"
         style="fill:#192124;fill-opacity:1;stroke-width:5.91653"
         d="m 15.709189,36.17683 -1.095787,-1.200544 -3.82e-4,-0.498747 1.326109,1.444376 c 0.112502,0.195556 -0.04763,0.369679 -0.229967,0.254915 z m -2.192256,2.48e-4 1.096345,-1.200544 -1.91e-4,-0.498747 -1.326093,1.444376 c -0.112502,0.195556 0.04763,0.369678 0.229967,0.254915 z" /><rect
         style="fill:none;fill-opacity:0.416031;stroke:none;stroke-width:0.0997965;stroke-dasharray:none;stroke-opacity:1"
         id="rect234-8"
         width="4.3438959"
         height="67.919472"
         x="12.489709"
         y="32.904011"
         ry="1.8520833" /><path
         id="path1072-8-6"
         style="fill:#e7ecee;fill-opacity:1;stroke-width:5.91653"
         d="m 13.518539,97.734291 1.095787,1.200544 3.82e-4,0.498747 -1.326109,-1.444376 c -0.112502,-0.195556 0.04763,-0.369679 0.229967,-0.254915 z m 2.192256,-2.48e-4 -1.096345,1.200544 1.91e-4,0.498747 1.326093,-1.444376 c 0.112502,-0.195556 -0.04763,-0.369678 -0.229967,-0.254915 z" /><path
         id="path1072-8-1-9"
         style="fill:#e7ecee;fill-opacity:1;stroke-width:5.91653"
         d="m 15.710885,77.849844 -1.095787,-1.200544 -3.82e-4,-0.498747 1.326109,1.444376 c 0.112502,0.195556 -0.04763,0.369679 -0.229967,0.254915 z m -2.192256,2.48e-4 1.096345,-1.200544 -1.91e-4,-0.498747 -1.326093,1.444376 c -0.112502,0.195556 0.04763,0.369678 0.229967,0.254915 z" /></g></g></svg>
